<svg preserveAspectRatio="none" width="100%" height="100%" overflow="visible" style="display: block;" viewBox="0 0 22 22" fill="none" xmlns="http://www.w3.org/2000/svg">
<g id="Facebook" clip-path="url(#clip0_0_11)">
<path id="Vector" d="M22 11.0674C22 4.95413 17.0748 -0.001375 11 -0.001375C4.9225 0 -0.00275 4.95413 -0.00275 11.0688C-0.00275 16.5921 4.0205 21.1709 9.2785 22.0014V14.267H6.48725V11.0688H9.28125V8.62813C9.28125 5.85475 10.9244 4.323 13.4365 4.323C14.641 4.323 15.8991 4.53888 15.8991 4.53888V7.26138H14.5117C13.1464 7.26138 12.7201 8.11525 12.7201 8.99112V11.0674H15.7699L15.2831 14.2656H12.7187V22C17.9767 21.1695 22 16.5908 22 11.0674Z" fill="var(--fill-0, #FFFEF9)"/>
</g>
<defs>
<clipPath id="clip0_0_11">
<rect width="22" height="22" fill="white"/>
</clipPath>
</defs>
</svg>
