<svg preserveAspectRatio="none" width="100%" height="100%" overflow="visible" style="display: block;" viewBox="0 0 10 10" fill="none" xmlns="http://www.w3.org/2000/svg">
<g id="Whatsapp" clip-path="url(#clip0_0_4)">
<path id="Vector" d="M8.50062 1.45378C8.04217 0.991079 7.49621 0.624246 6.89456 0.374659C6.29291 0.125072 5.64761 -0.00227767 4.99625 3.08316e-05C2.26687 3.08316e-05 0.0425 2.22378 0.04 4.95378C0.04 5.82816 0.26875 6.67878 0.700625 7.43191L0 10L2.6275 9.31128C3.35438 9.70685 4.16871 9.91419 4.99625 9.91441H4.99875C7.72875 9.91441 9.9525 7.69066 9.955 4.95816C9.95562 4.30693 9.82739 3.66202 9.57767 3.06058C9.32795 2.45914 8.96232 1.91305 8.50062 1.45378ZM4.99625 9.07566C4.25812 9.0759 3.53356 8.87728 2.89875 8.50066L2.74875 8.41066L1.19 8.81941L1.60625 7.29878L1.50875 7.14191C1.09613 6.48586 0.877904 5.7263 0.879375 4.95128C0.879375 2.68503 2.7275 0.836281 4.99875 0.836281C5.53984 0.83531 6.07577 0.941452 6.57564 1.14859C7.07551 1.35572 7.52944 1.65976 7.91125 2.04316C8.2944 2.42506 8.59814 2.87905 8.80495 3.37893C9.01177 3.8788 9.11757 4.41468 9.11625 4.95566C9.11375 7.23003 7.26562 9.07566 4.99625 9.07566ZM7.25563 5.99191C7.1325 5.93003 6.52437 5.63066 6.41 5.58816C6.29625 5.54753 6.21312 5.52628 6.13187 5.65003C6.04875 5.77316 5.81125 6.05378 5.74 6.13441C5.66875 6.21753 5.595 6.22691 5.47125 6.16566C5.34812 6.10316 4.94875 5.97316 4.47625 5.55003C4.1075 5.22191 3.86063 4.81566 3.78688 4.69253C3.71563 4.56878 3.78 4.50253 3.84187 4.44066C3.89625 4.38566 3.965 4.29566 4.02687 4.22441C4.08937 4.15316 4.11 4.10066 4.15062 4.01816C4.19125 3.93441 4.17187 3.86316 4.14125 3.80128C4.11 3.73941 3.86312 3.12878 3.75875 2.88253C3.65875 2.63941 3.55687 2.67316 3.48062 2.67003C3.40937 2.66566 3.32625 2.66566 3.24313 2.66566C3.18035 2.66722 3.11858 2.68173 3.06168 2.7083C3.00479 2.73487 2.954 2.77291 2.9125 2.82003C2.79875 2.94378 2.48063 3.24316 2.48063 3.85378C2.48063 4.46441 2.92437 5.05128 2.98687 5.13441C3.04812 5.21753 3.85812 6.46691 5.10125 7.00441C5.395 7.13253 5.62625 7.20816 5.80688 7.26566C6.10375 7.36066 6.37187 7.34628 6.58562 7.31566C6.82312 7.27941 7.3175 7.01566 7.42188 6.72628C7.52438 6.43628 7.52438 6.18878 7.49313 6.13691C7.4625 6.08441 7.37938 6.05378 7.25563 5.99191Z" fill="var(--fill-0, #FFFEF9)"/>
</g>
<defs>
<clipPath id="clip0_0_4">
<rect width="10" height="10" fill="white"/>
</clipPath>
</defs>
</svg>
